<svg xmlns="http://www.w3.org/2000/svg" width="20" height="20" viewBox="0 0 20 20">
    <g transform="translate(-660 -273)">
        <path d="M3,0H20a0,0,0,0,1,0,0V17a3,3,0,0,1-3,3H0a0,0,0,0,1,0,0V3A3,3,0,0,1,3,0Z" transform="translate(660 273)"
              fill="#ff6464"/>
        <g transform="translate(635.279 276.001)">
            <path d="M67.037,186.606a2.839,2.839,0,0,0,.137.935.971.971,0,0,0,.684.684,1.132,1.132,0,0,0,.211.021h7.209a.369.369,0,0,0,.051,0c.688-.044.968-.759.968-1.637l.289-7H66.748Zm6.593-5.439H75v5.517H73.63Zm-2.648,0h1.369v5.517H70.982Zm-2.648,0h1.371v5.517H68.335Z"
                  transform="translate(-37.039 -174.939)" fill="#fff"/>
            <path d="M37.557,2.32c0-.053.006-.106.006-.158V2.016A2.02,2.02,0,0,0,35.546,0H33.709a2.02,2.02,0,0,0-2.017,2.017v.146c0,.053,0,.106.008.158H28.721V3.947H40.536V2.32ZM36.3,2.162a.774.774,0,0,1-.017.158H32.974a.773.773,0,0,1-.017-.158V2.016a.753.753,0,0,1,.751-.751h1.838a.751.751,0,0,1,.751.751Z"
                  transform="translate(0)" fill="#fff"/>
        </g>
    </g>
</svg>