<svg xmlns="http://www.w3.org/2000/svg" width="20" height="20" viewBox="0 0 20 20">
    <defs>
        <style>.cls-1{fill:#0071bc;}.cls-2{fill:#fff;}</style>
    </defs>
    <g>
        <path class="cls-1" d="M3,0H20V17a3,3,0,0,1-3,3H0V3A3,3,0,0,1,3,0Z"/>
        <g>
            <path class="cls-2"
                  d="M7.36,15.12l0,0L12.53,10l.06,0,.05-.06,2.72-2.71h0l-3-3h0L9.61,6.81l-.06.05-.05.06L4.33,12.09h0L3,16.45H3l4.29-1.31ZM4,15.48l.66-2.17h0l1.51,1.51h0L4,15.48Z"/>
            <path class="cls-2"
                  d="M16.22,5.74a.87.87,0,0,0,0-1.23L15,3.25a.88.88,0,0,0-1.22,0l-.63.63h0l2.48,2.48h0Z"/>
        </g>
    </g>
</svg>